<svg xmlns="http://www.w3.org/2000/svg" id="Layer_2" data-name="Layer 2" viewBox="0 0 314.87 168.77"><g id="type"><path d="m252.1,160.91c.54-.86,1.01-1.58,1.46-2.31,2.4-3.88,4.51-7.91,5.91-12.27.97-3,1.56-6.07,1.44-9.24-.19-4.94-1.99-9.1-5.98-12.16-1.57-1.2-3.41-1.86-5.28-2.43-2.52-.76-5.1-.79-7.67-.54-5.49.54-10.46,2.58-15.12,5.48-2.01,1.25-3.81,2.76-5.54,4.35-1.83,1.67-3.56,3.45-5.32,5.19-.38.37-.69.8-1.02,1.22-2.72,3.43-5.2,7.04-7.35,10.86-.14.26-.31.5-.53.87-.26-.73-.47-1.33-.67-1.92-.94-2.7-2.04-5.34-3.48-7.82-1.41-2.42-3.06-4.67-5.27-6.41-2.83-2.23-6.06-3.26-9.69-3.03-1.19.08-2.35.3-3.49.68-3.76,1.24-7.04,3.22-9.87,6.02-4.46,4.42-7.85,9.56-10.69,15.1-2.57,5.03-4.79,10.2-6.3,15.66-.04.14-.1.28-.19.54-.12-.32-.22-.53-.28-.76-1.8-6.39-4.52-12.39-7.69-18.19-1.77-3.25-3.85-6.32-6.23-9.14-1.6-1.91-3.41-3.68-5.33-5.27-2.76-2.29-5.99-3.77-9.53-4.45-2.21-.43-4.43-.32-6.6.4-2.45.81-4.57,2.12-6.33,4.02-2.17,2.35-3.85,5.02-5.12,7.93-.82,1.87-1.5,3.81-2.24,5.71-.1.25-.19.51-.34.89-.21-.33-.35-.55-.48-.78-2.18-3.86-4.65-7.53-7.45-10.97-1.1-1.35-2.3-2.63-3.56-3.84-1.62-1.56-3.28-3.09-5.03-4.5-5.05-4.1-10.79-6.75-17.24-7.72-3.9-.58-7.75-.28-11.45,1.35-2.69,1.19-4.74,3.05-6.29,5.51-1.36,2.16-2.04,4.56-2.25,7.09-.35,4.09.5,8,1.9,11.81,1.54,4.2,3.68,8.09,6.08,11.85.2.32.41.64.61.96.03.04.03.1.07.25-.28-.1-.51-.18-.73-.27-4.77-2-9.3-4.46-13.82-6.94-7.15-3.91-13.78-8.59-19.98-13.86-7.1-6.05-13.39-12.85-18.41-20.76-3.85-6.07-6.73-12.56-8.32-19.59-1.32-5.81-1.73-11.69-1.2-17.64.8-8.9,3.69-17.1,8.18-24.78,3.66-6.26,8.15-11.88,13.25-17.02,6.23-6.28,13.18-11.65,20.69-16.3,2.43-1.5,4.83-3.06,7.31-4.46,6.71-3.78,13.75-6.85,20.89-9.73,9.68-3.9,19.63-6.95,29.77-9.38.24-.06.48-.09.91-.16-.24.36-.38.59-.53.8-2.14,3.01-4.2,6.07-6.07,9.26-4.05,6.92-6.83,14.32-8.21,22.22-1.54,8.76-.81,17.3,2.99,25.43,2.03,4.35,4.92,8.11,8.89,10.86,4.06,2.81,8.59,4.25,13.6,3.8,3.56-.32,6.68-1.73,9.4-4.03,3.05-2.57,5.34-5.74,7.05-9.31,1.57-3.27,2.87-6.65,3.45-10.24.33-2.04.48-4.12.69-6.18.24-2.26.44-4.53.68-6.79.33-3.12.68-6.23,1.01-9.35.39-3.65.77-7.29,1.15-10.94.33-3.17.64-6.34.97-9.51.17-1.61.34-3.22.51-4.83.03-.24.09-.48.16-.87.24.26.42.42.56.6,2.6,3.3,5.2,6.59,7.8,9.89.47.6.95,1.19,1.39,1.8.25.34.54.48.96.47,1.29-.02,2.58,0,3.87,0,5.11,0,10.22-.01,15.33.01.64,0,1.06-.17,1.46-.7,2.9-3.74,5.83-7.45,8.75-11.17.23-.29.47-.56.82-.97.07.41.11.62.14.84.62,5.94,1.23,11.87,1.85,17.81.6,5.68,1.22,11.36,1.81,17.05.34,3.29.7,6.59.97,9.89.35,4.32,1.7,8.36,3.43,12.28,1.42,3.22,3.35,6.12,5.8,8.65,2.65,2.74,5.77,4.68,9.57,5.37,3.06.55,6.09.36,9.06-.61,1.84-.6,3.57-1.41,5.23-2.4,1.71-1.02,3.15-2.38,4.51-3.81,2.54-2.67,4.49-5.72,5.87-9.13,2.04-5.03,3.06-10.24,3.05-15.68-.01-5.7-1.12-11.19-2.79-16.61-2.2-7.16-5.72-13.64-9.91-19.79-.77-1.13-1.56-2.24-2.34-3.36-.14-.2-.26-.41-.5-.77.4.08.64.12.87.17,15.64,3.68,30.67,9.08,45.09,16.16,4.36,2.14,8.54,4.6,12.64,7.21,4.79,3.05,9.43,6.3,13.78,9.93,9.17,7.66,16.92,16.53,22.41,27.24,2.95,5.76,4.95,11.84,5.87,18.25.71,4.98.73,9.98.11,14.98-1.2,9.57-4.74,18.25-10.02,26.26-4.09,6.2-8.98,11.72-14.43,16.74-7.33,6.75-15.36,12.52-24.14,17.25-3.43,1.85-6.91,3.58-10.38,5.34-.95.48-1.94.85-2.92,1.27-.09.04-.18.05-.42.11Z"/></g></svg>