<svg xmlns="http://www.w3.org/2000/svg" id="Layer_2" data-name="Layer 2" viewBox="0 0 267.47 197.5"><defs><style>.cls-1{fill:#fc2e2e}.cls-1,.cls-2,.cls-3,.cls-4,.cls-5,.cls-6{stroke:#000;stroke-linecap:square;stroke-linejoin:bevel;stroke-width:1.5px}.cls-2{fill:#ffec00}.cls-3{fill:#30e462}.cls-4{fill:#9c74d8}.cls-5{fill:#9b9b9b}.cls-6{fill:#18cafe}</style></defs><g id="Layer_1-2" data-name="Layer 1"><g><g><g><polygon points="135.2 180.27 154.59 196.75 177.27 185.41 128.85 144.25 135.2 180.27" class="cls-2"/><polygon points="207.27 144.25 128.85 144.25 177.27 185.41 226.66 160.73 207.27 144.25" class="cls-2"/></g><polygon points="233.01 196.75 154.59 196.75 148.24 160.73 226.66 160.73 233.01 196.75" class="cls-2"/></g><g><g><polygon points="56.77 180.27 76.16 196.75 98.84 185.41 50.42 144.25 56.77 180.27" class="cls-5"/><polygon points="128.85 144.25 50.42 144.25 98.84 185.41 148.24 160.73 128.85 144.25" class="cls-5"/></g><polygon points="154.59 196.75 76.16 196.75 69.81 160.73 148.24 160.73 154.59 196.75" class="cls-5"/></g><g><g><polygon points="168.92 144.19 188.31 160.67 210.99 149.33 162.57 108.17 168.92 144.19" class="cls-4"/><polygon points="240.99 108.17 162.57 108.17 210.99 149.33 260.38 124.65 240.99 108.17" class="cls-3"/></g><polygon points="266.73 160.67 188.31 160.67 181.96 124.65 260.38 124.65 266.73 160.67" class="cls-3"/></g><g><g><polygon points="90.49 144.19 109.88 160.67 132.56 149.33 84.14 108.17 90.49 144.19" class="cls-4"/><polygon points="162.57 108.17 84.14 108.17 132.56 149.33 181.95 124.65 162.57 108.17" class="cls-4"/></g><polygon points="188.31 160.67 109.88 160.67 103.53 124.65 181.95 124.65 188.31 160.67" class="cls-4"/></g><g><g><polygon points="13.07 144.19 32.46 160.67 55.15 149.33 6.72 108.17 13.07 144.19" class="cls-1"/><polygon points="85.15 108.17 6.72 108.17 55.15 149.33 104.54 124.65 85.15 108.17" class="cls-1"/></g><polygon points="110.89 160.67 32.46 160.67 26.11 124.65 104.54 124.65 110.89 160.67" class="cls-1"/></g><g><g><polygon points="129.96 108.17 149.35 124.65 172.03 113.31 123.61 72.14 129.96 108.17" class="cls-4"/><polygon points="202.03 72.14 123.61 72.14 172.03 113.31 221.42 88.63 202.03 72.14" class="cls-4"/></g><polygon points="227.77 124.65 149.35 124.65 142.99 88.63 221.42 88.63 227.77 124.65" class="cls-6"/></g><g><g><polygon points="51.53 108.17 70.92 124.65 93.6 113.31 45.18 72.14 51.53 108.17" class="cls-3"/><polygon points="123.61 72.14 45.18 72.14 93.6 113.31 142.99 88.63 123.61 72.14" class="cls-3"/></g><polygon points="149.35 124.65 70.92 124.65 64.57 88.63 142.99 88.63 149.35 124.65" class="cls-3"/></g><g><g><polygon points="162.93 72.79 182.32 89.28 205.01 77.94 156.58 36.77 162.93 72.79" class="cls-3"/><polygon points="235.01 36.77 156.58 36.77 205.01 77.94 254.4 53.25 235.01 36.77" class="cls-3"/></g><polygon points="260.75 89.28 182.32 89.28 175.97 53.25 254.4 53.25 260.75 89.28" class="cls-3"/></g><g><g><polygon points="84.51 72.79 103.9 89.28 126.58 77.94 78.15 36.77 84.51 72.79" class="cls-4"/><polygon points="156.58 36.77 78.15 36.77 126.58 77.94 175.97 53.25 156.58 36.77" class="cls-4"/></g><polygon points="182.32 89.28 103.9 89.28 97.54 53.25 175.97 53.25 182.32 89.28" class="cls-4"/></g><g><g><polygon points="7.09 72.79 26.48 89.28 49.16 77.94 .74 36.77 7.09 72.79" class="cls-5"/><polygon points="79.17 36.77 .74 36.77 49.16 77.94 98.55 53.25 79.17 36.77" class="cls-5"/></g><polygon points="104.91 89.28 26.48 89.28 20.13 53.25 98.55 53.25 104.91 89.28" class="cls-5"/></g><g><g><polygon points="110.76 36.77 130.15 53.25 152.84 41.92 104.41 .75 110.76 36.77" class="cls-2"/><polygon points="182.84 .75 104.41 .75 152.84 41.92 202.23 17.23 182.84 .75" class="cls-2"/></g><polygon points="208.58 53.25 130.15 53.25 123.8 17.23 202.23 17.23 208.58 53.25" class="cls-2"/></g><g><g><polygon points="32.34 36.77 51.72 53.25 74.41 41.92 25.98 .75 32.34 36.77" class="cls-4"/><polygon points="104.41 .75 25.98 .75 74.41 41.92 123.8 17.23 104.41 .75" class="cls-4"/></g><polygon points="130.15 53.25 51.72 53.25 45.37 17.23 123.8 17.23 130.15 53.25" class="cls-4"/></g></g></g></svg>