<svg xmlns="http://www.w3.org/2000/svg" fill="currentColor" viewBox="0 0 84 96"><path fill="currentColor" d="M73.0513 95.3162C73.226 95.8402 73.7923 96.1233 74.3162 95.9487L82.8544 93.1026C83.3783 92.928 83.6615 92.3617 83.4868 91.8377C83.3122 91.3138 82.7459 91.0306 82.2219 91.2053L74.6325 93.7351L72.1026 86.1456C71.928 85.6217 71.3617 85.3385 70.8377 85.5132C70.3138 85.6878 70.0306 86.2541 70.2053 86.7781L73.0513 95.3162ZM0.858579 1.98995C19.4328 4.6434 45.2687 12.5003 62.548 27.3582C71.1704 34.7723 77.6221 43.8937 80.0291 54.9502C82.435 66.0011 80.8273 79.1093 73.1056 94.5528L74.8944 95.4472C82.7727 79.6907 84.5067 66.1156 81.9834 54.5248C79.4612 42.9397 72.7129 33.461 63.852 25.8418C46.1647 10.633 19.9006 2.68993 1.14142 0.0100505L0.858579 1.98995Z" opacity=".3"/></svg>