<svg xmlns="http://www.w3.org/2000/svg" viewBox="0 0 169 169" fill="none"><circle cx="84.3136" cy="84.3133" r="62.5" transform="rotate(27.5343 84.3136 84.3133)" fill="#FFFF00"/><path fill-rule="evenodd" clip-rule="evenodd" d="M92.6671 55.7658C92.6142 54.2164 92.3466 52.6032 91.5685 51.2323C90.6895 49.6836 89.209 48.5703 87.3103 48.3539C85.6605 48.1659 84.1742 48.7133 83.0861 49.2865C81.9448 49.8878 80.8455 50.7271 79.8287 51.6537C75.836 55.2922 71.4989 61.7782 68.9881 68.2742C67.1412 73.0525 65.1738 79.077 64.5221 84.7055C62.1986 86.0636 60.3181 86.6842 59.0287 86.7282C57.7117 86.7731 56.9176 86.4275 56.3662 86.0016C55.7553 85.5298 55.1844 84.7524 54.7224 83.5979C53.7667 81.2098 53.6179 78.0549 53.8477 75.8508L46.465 75.081C46.1618 77.988 46.2734 82.4635 47.8309 86.3557C48.6255 88.3413 49.8743 90.3665 51.8289 91.8762C53.8429 93.4317 56.3599 94.2463 59.2819 94.1466C61.0762 94.0854 62.9231 93.6121 64.751 92.8679C65.2336 95.0673 66.1564 97.1866 67.7697 98.939C70.3637 101.757 74.1311 102.977 78.676 102.822C80.3412 102.765 81.9404 102.513 83.4711 102.098C83.7464 102.671 84.0503 103.257 84.3829 103.854C85.791 106.384 87.7989 109.279 90.5905 112.464C90.3253 112.48 90.0638 112.5 89.8063 112.525C87.3334 112.759 85.2568 113.366 83.7934 113.913C83.0579 114.189 82.4658 114.454 82.0426 114.658C81.8306 114.76 81.66 114.848 81.5338 114.915C81.4707 114.949 81.4186 114.977 81.3779 115L81.3255 115.029L81.3057 115.041L81.2975 115.045L81.2938 115.047C81.2921 115.048 81.2904 115.049 83.1454 118.264C85.0004 121.478 84.9988 121.479 84.9972 121.48L84.9943 121.482L84.9892 121.485L84.9819 121.489C84.9784 121.491 84.9774 121.492 84.9791 121.491C84.9823 121.489 84.9957 121.481 85.0189 121.469C85.0654 121.444 85.1507 121.4 85.2717 121.342C85.5146 121.224 85.897 121.052 86.3955 120.865C87.4001 120.489 88.8293 120.073 90.5074 119.914C93.7638 119.605 98.0678 120.231 102.323 124.375L107.502 119.057C103.246 114.913 102.501 110.621 102.72 107.351C102.833 105.667 103.209 104.225 103.557 103.209C103.73 102.704 103.892 102.317 104.002 102.07C104.058 101.948 104.099 101.861 104.123 101.814C104.135 101.79 104.142 101.777 104.143 101.773L104.142 101.776L104.138 101.783L104.135 101.789L104.134 101.792C104.133 101.793 104.132 101.795 100.866 100.032C97.6003 98.2683 97.5994 98.27 97.5984 98.2718L97.5964 98.2756L97.5919 98.2839L97.5813 98.304L97.5534 98.3572C97.532 98.3985 97.505 98.4514 97.4732 98.5154C97.4098 98.6434 97.3268 98.8165 97.2304 99.0313C97.0379 99.4602 96.7899 100.06 96.5353 100.803C96.0466 102.229 95.5192 104.228 95.3333 106.593C93.3009 104.167 91.8636 102.032 90.8688 100.244C90.6288 99.8132 90.4156 99.404 90.2266 99.0176C94.1978 96.4235 97.5023 92.7809 100.072 88.9676C104.853 81.8721 107.747 73.2545 107.896 66.9184L107.898 66.8117L107.895 66.705C107.841 65.1278 107.294 62.5618 104.762 61.399C102.461 60.3418 100.191 61.28 98.8789 62.0384C95.1496 64.194 90.7222 68.4071 87.2845 73.9351C83.8413 79.472 81.2393 86.5724 81.4727 94.5953C81.4677 94.7094 81.4654 94.8257 81.4655 94.9441C80.4687 95.2115 79.4532 95.368 78.4229 95.4031C75.3374 95.5084 73.9422 94.6845 73.2307 93.9116C72.423 93.0343 71.8172 91.4898 71.7312 88.9713C71.7296 88.9235 71.7281 88.8755 71.7269 88.8274C74.9245 86.4778 78.1086 83.5027 80.9759 80.2543C84.2317 76.566 87.1673 72.4253 89.2793 68.2935C91.358 64.2269 92.8062 59.8432 92.6671 55.7658ZM75.4111 75.3422C74.8706 75.9545 74.3205 76.5525 73.7637 77.1335C74.4006 75.0405 75.1399 72.9471 75.9117 70.9503C78.0805 65.339 81.8238 59.8781 84.8284 57.1401C84.9721 57.0091 85.11 56.8882 85.242 56.7768C85.1351 58.9614 84.289 61.7477 82.6699 64.9151C80.8905 68.3962 78.3355 72.0292 75.4111 75.3422ZM86.849 55.7203C86.85 55.72 86.8505 55.7199 86.8506 55.7198C86.8506 55.7198 86.8497 55.7199 86.8478 55.7204C86.8463 55.7208 86.8442 55.7214 86.8414 55.7222C86.845 55.7214 86.8475 55.7207 86.849 55.7203ZM93.916 84.8198C92.4378 87.0135 90.8057 88.9536 89.0528 90.5541C89.589 85.8012 91.3316 81.4832 93.5879 77.8549C95.6104 74.6026 97.9707 72.025 100.067 70.2704C99.2285 74.6303 97.129 80.0513 93.916 84.8198ZM100.466 66.8358C100.466 66.8357 100.467 66.8381 100.468 66.8433C100.467 66.8384 100.466 66.8358 100.466 66.8358Z" fill="#111111"/></svg>