<svg xmlns="http://www.w3.org/2000/svg" viewBox="0 0 44 44" fill="currentColor"><path d="M22.0004 0C9.84962 0 0 9.8498 0 22.0008C0 34.1518 9.84962 44 22.0004 44C34.1512 44 44 34.1502 44 22C44 9.8498 34.1504 0 22.0004 0ZM28.7456 22.0274C28.7438 22.1811 28.6857 22.3288 28.5824 22.4427C28.4791 22.5565 28.3376 22.6285 28.1848 22.645C25.4828 22.9512 23.2859 25.449 22.7421 28.705C22.689 29.027 22.6523 29.3514 22.6321 29.6771C22.6239 29.8392 22.5537 29.992 22.4361 30.1039C22.3184 30.2157 22.1623 30.2781 22 30.2781C21.8377 30.2781 21.6815 30.2157 21.5639 30.1039C21.4463 29.992 21.3761 29.8392 21.3679 29.6771C21.3483 29.3514 21.3117 29.0269 21.2583 28.705C20.7141 25.449 18.5189 22.9512 15.8156 22.645C15.6628 22.6285 15.5213 22.5566 15.4179 22.4427C15.3145 22.3289 15.2565 22.1811 15.2548 22.0274V21.9734C15.2565 21.8197 15.3145 21.6719 15.4179 21.5581C15.5213 21.4442 15.6628 21.3723 15.8156 21.3558C18.5172 21.0496 20.7141 18.5518 21.2583 15.2962C21.3117 14.9742 21.3483 14.6496 21.3679 14.3237C21.3761 14.1616 21.4463 14.0088 21.5639 13.8969C21.6815 13.7851 21.8377 13.7227 22 13.7227C22.1623 13.7227 22.3184 13.7851 22.4361 13.8969C22.5537 14.0088 22.6239 14.1616 22.6321 14.3237C22.6522 14.6495 22.6889 14.9741 22.7421 15.2962C23.2859 18.5518 25.4815 21.0496 28.1848 21.3558C28.3376 21.3724 28.479 21.4444 28.5823 21.5582C28.6856 21.672 28.7437 21.8197 28.7456 21.9734V22.0274Z" fill="currentColor"/></svg>