<svg xmlns="http://www.w3.org/2000/svg" viewBox="0 0 77 95" fill="currentColor"><path d="M38.5657 95C38.5657 95 38.6095 94.9123 38.6095 94.8684C38.8287 92.9825 39.0039 91.0526 39.2669 89.1667C39.5298 86.9737 39.7927 84.7807 40.0557 82.5877C40.3625 80.4386 40.6254 78.2456 41.0198 76.0965C41.721 72.2368 42.5976 68.3772 44.2191 64.693C46.7609 58.8158 51.3625 54.5614 58.1992 51.9298C61.7051 50.5702 65.3425 49.6053 69.0676 48.9035C71.6094 48.4211 74.1951 48.0702 76.7369 47.6316C76.8246 47.6316 76.9124 47.5439 77 47.5439C76.9124 47.5439 76.8246 47.4561 76.7369 47.4561C72.6174 46.9737 68.4979 46.4474 64.4661 45.5263C61.5298 44.8684 58.6374 43.9912 55.9641 42.807C51.0119 40.614 47.5498 37.2807 45.4462 32.9825C44.2191 30.5263 43.3864 27.9825 42.7291 25.3509C41.984 22.4561 41.4581 19.5175 41.0198 16.6228C40.5378 13.3772 40.0558 10.1754 39.5737 6.92983C39.2669 4.73685 38.9601 2.54387 38.6095 0.350885C38.6095 0.263166 38.6095 0.131579 38.5218 0C38.5218 0.0877193 38.4342 0.131576 38.3903 0.219295C38.215 1.57894 37.996 2.93859 37.8207 4.29824C37.5578 6.05263 37.3386 7.80702 37.0756 9.56141C36.8565 11.1404 36.6812 12.6754 36.4183 14.2544C36.1115 16.3596 35.7609 18.4649 35.4103 20.5263C34.972 23.1579 34.3585 25.7895 33.5259 28.3333C32.6494 31.0526 31.5099 33.7281 29.6693 36.1404C27.0836 39.6053 23.4462 41.9737 19.0199 43.5965C15.9522 44.7368 12.7968 45.4824 9.55375 46.0965C6.61749 46.6667 3.68129 47.0175 0.70121 47.3684C0.525917 47.3684 0.350502 47.3684 0.175201 47.4123C0.131378 47.4123 0.0438232 47.4561 0 47.5C0.0438232 47.5 0.0875549 47.5877 0.175201 47.5877C1.70907 47.8509 3.24297 48.0702 4.73301 48.3333C9.07166 49.0789 13.3227 50.0439 17.3984 51.4912C20.6853 52.6754 23.753 54.2105 26.2948 56.3596C28.7052 58.3772 30.4582 60.7456 31.7729 63.3772C33.0438 65.9211 33.9203 68.5965 34.5339 71.3158C35.1912 74.2544 35.7609 77.2368 36.243 80.2193C36.8127 83.5965 37.2509 86.9737 37.733 90.3947C37.9521 91.886 38.1713 93.3333 38.3466 94.8246C38.3466 94.8684 38.3465 94.9123 38.3903 95C38.3903 95 38.4342 95 38.4781 95H38.5657Z" fill="currentColor"/></svg>